<svg width="62" height="62" viewBox="0 0 62 62" fill="none" xmlns="http://www.w3.org/2000/svg">
<path d="M31 0C17.1554 0 5.89215 11.2633 5.89215 25.1079C5.89215 30.8206 7.76426 36.2006 11.3062 40.6665C15.8923 46.4488 29.2288 60.1782 29.7942 60.7597L30.9998 62L32.2057 60.7599C32.7714 60.178 46.1119 46.4456 50.6987 40.6614C54.2374 36.1991 56.1079 30.8209 56.1079 25.1079C56.1079 11.2633 44.8446 0 31 0ZM48.0633 38.5715C44.3708 43.2278 34.4546 53.5858 31 57.1684C27.5457 53.5859 17.633 43.231 13.9415 38.5764C10.876 34.7111 9.25563 30.0539 9.25563 25.1079C9.25563 13.1179 19.0101 3.36348 31 3.36348C42.9898 3.36348 52.7444 13.1179 52.7442 25.1079C52.7442 30.0542 51.1256 34.7099 48.0633 38.5715Z" fill="white" fill-opacity="0.5"/>
<path d="M31 9.9668C22.8049 9.9668 16.1378 16.6339 16.1378 24.829C16.1378 33.0241 22.8051 39.6912 31 39.6912C39.195 39.6912 45.8622 33.0239 45.8622 24.829C45.8622 16.6341 39.1951 9.9668 31 9.9668ZM31 36.3277C24.6595 36.3277 19.5013 31.1693 19.5013 24.829C19.5013 18.4885 24.6597 13.3303 31 13.3303C37.3403 13.3303 42.4986 18.4887 42.4987 24.829C42.4987 31.1695 37.3405 36.3277 31 36.3277Z" fill="white" fill-opacity="0.5"/>
</svg>
